<svg xmlns="http://www.w3.org/2000/svg" width="48" height="48" viewBox="0 0 48 48">
  <g fill="none" fill-rule="evenodd" transform="translate(5)">
    <polygon fill="#FFDEC1" points="0 0 7.5 3 13.5 0 19.5 3 25.5 0 31.5 3 39 0 39 48 31.5 45 25.5 48 19.5 45 13.5 48 7.5 45 0 48"/>
    <path fill="#FF7F1B" d="M9 12L30 12 30 15 9 15 9 12zM9 18L30 18 30 21 9 21 9 18zM9 24L21 24 21 27 9 27 9 24zM9 30L21 30 21 33 9 33 9 30zM34.2642889 29.1782735C33.389679 27.924116 32.2510361 27 30.2377833 27 27.894489 27 26.2112777 28.600701 25.5511948 30.8284807L24 30.8284807 24 32.2311569 25.2871616 32.2311569C25.2541575 32.478688 25.2541575 32.7427211 25.2541575 32.9902522 25.2541575 33.2047791 25.2541575 33.4193061 25.2706596 33.6173309L24 33.6173309 24 35.0365091 25.5016886 35.0365091C26.1452694 37.3798034 27.8614849 38.9475002 30.3037916 38.9475002 32.1850278 38.9475002 33.3566749 37.99038 34.297293 36.6207081L32.8451107 35.5480734C32.0860153 36.5546998 31.4259325 37.1322723 30.3202936 37.1322723 29.033132 37.1322723 28.0925139 36.3401728 27.6304559 35.0365091L31.1949035 35.0365091 31.1949035 33.6173309 27.3169165 33.6173309C27.3004144 33.402804 27.3004144 33.1882771 27.3004144 32.957248 27.3004144 32.709717 27.3004144 32.4621859 27.3334186 32.2311569L31.1949035 32.2311569 31.1949035 30.8284807 27.6469579 30.8284807C28.109016 29.5908253 29.0166299 28.8152279 30.1882771 28.8152279 31.3434221 28.8152279 32.0200071 29.3432942 32.7295962 30.3169165L34.2642889 29.1782735z"/>
  </g>
</svg>
