<svg xmlns="http://www.w3.org/2000/svg" width="48" height="48" viewBox="0 0 48 48">
  <g fill="none" fill-rule="evenodd">
    <circle cx="24" cy="24" r="24" fill="#E2C9EE"/>
    <path fill="#A75BCB" d="M25,25.93 L25,31 C25,31.554 24.55,32 24,32 C23.448,32 23,31.554 23,31 L23,25 C23,24.448 23.448,24 24,24 C26.756,24 29,21.758 29,19 C29,16.242 26.756,14 24,14 C21.242,14 19,16.242 19,19 C19,19.554 18.55,20 18,20 C17.448,20 17,19.554 17,19 C17,15.14 20.138,12 24,12 C27.86,12 31,15.14 31,19 C31,22.52 28.386,25.442 25,25.93 Z M24,38 C22.894,38 22,37.106 22,36 C22,34.896 22.894,34 24,34 C25.102,34 26,34.896 26,36 C26,37.106 25.102,38 24,38 Z"/>
  </g>
</svg>
