<svg xmlns="http://www.w3.org/2000/svg" width="48" height="48" viewBox="0 0 48 48">
  <g fill="none" fill-rule="evenodd" transform="translate(0 6)">
    <path fill="#35CE68" d="M3,31.5 L3,3 L3,3 C3,1.34314575 4.34314575,3.04359188e-16 6,0 L42,0 L42,0 C43.6568542,-3.04359188e-16 45,1.34314575 45,3 L45,31.5 L3,31.5 Z"/>
    <rect width="36" height="24" x="6" y="3" fill="#BCEFCD"/>
    <path fill="#BCEFCD" d="M28,31.5 L18.5,31.5 L18.5,31.5 C18.2238576,31.5 18,31.2761424 18,31 L18,30.5 L18,30.5 C18,30.2238576 17.7761424,30 17.5,30 L0.5,30 L0.5,30 C0.223857625,30 -3.38176876e-17,30.2238576 0,30.5 L0,33 L0,33 C2.02906125e-16,34.6568542 1.34314575,36 3,36 L45,36 L45,36 C46.6568542,36 48,34.6568542 48,33 L48,30.5 L48,30.5 C48,30.2238576 47.7761424,30 47.5,30 L29,30 L29,30 C28.7238576,30 28.5,30.2238576 28.5,30.5 L28.5,31 L28.5,31 C28.5,31.2761424 28.2761424,31.5 28,31.5 Z"/>
  </g>
</svg>
