<svg id="Layer_1" xmlns="http://www.w3.org/2000/svg" viewBox="0 0 32 32"><style>.st0{fill:none}</style><path class="st0" d="M22 12h-7c-.6 0-1 .4-1 1s.4 1 1 1h7c.6 0 1-.4 1-1s-.4-1-1-1zM25 7H15c-.5 0-1 .4-1 1s.4 1 1 1h10c.5 0 1-.4 1-1s-.4-1-1-1z"/><path fill="#FFFFFF" d="M31 1H9c-.6 0-1 .5-1 1v15c2.2 0 4.1 1.2 5.2 3H18v1.9c0 .6.4.7.8.4l3.3-2.3H31c.6 0 1-.5 1-1V2c0-.6-.4-1-1-1zm-9 13h-7c-.6 0-1-.4-1-1s.4-1 1-1h7c.6 0 1 .4 1 1s-.4 1-1 1zm3-5H15c-.6 0-1-.4-1-1s.5-1 1-1h10c.6 0 1 .4 1 1s-.5 1-1 1z"/><path fill="#FFFFFF" id="path-3_1_" d="M10.4 26.7c0 .1-.7 1.3-2.4 1.3-1.8 0-2.4-1.2-2.4-1.3-.1-.2 0-.5.2-.7.2-.1.5 0 .7.2 0 0 .4.7 1.6.7 1.1 0 1.5-.7 1.6-.7.1-.2.4-.3.7-.2.1.2.2.5 0 .7M12 23c0-2.2-1.8-4-4-4s-4 1.8-4 4c-2.2 0-4 1.8-4 4s1.8 4 4 4h8c2.2 0 4-1.8 4-4s-1.8-4-4-4"/></svg>
