<svg xmlns="http://www.w3.org/2000/svg" width="16" height="16" viewBox="0 0 16 16">
  <path fill="#95999D" fill-rule="evenodd" d="M327,99.4142136 L325.707107,100.707107 C325.316582,101.097631 324.683418,101.097631 324.292893,100.707107 C323.902369,100.316582 323.902369,99.6834175 324.292893,99.2928932 L327.292893,96.2928932 C327.683418,95.9023689 328.316582,95.9023689 328.707107,96.2928932 L331.707107,99.2928932 C332.097631,99.6834175 332.097631,100.316582 331.707107,100.707107 C331.316582,101.097631 330.683418,101.097631 330.292893,100.707107 L329,99.4142136 L329,107 C329,107.552285 328.552285,108 328,108 C327.447715,108 327,107.552285 327,107 L327,99.4142136 Z M321,112 L335,112 C335.552285,112 336,111.552285 336,111 C336,110.447715 335.552285,110 335,110 L321,110 C320.447715,110 320,110.447715 320,111 C320,111.552285 320.447715,112 321,112 Z" transform="rotate(90 216 -104)"/>
</svg>
