<svg xmlns="http://www.w3.org/2000/svg" width="16" height="16" viewBox="0 0 16 16">
  <path fill="#95999D" fill-rule="evenodd" d="M224,131 C224,130.447715 224.444631,130 225.000872,130 L238.999128,130 C239.551894,130 240,130.443865 240,131 C240,131.552285 239.555369,132 238.999128,132 L225.000872,132 C224.448106,132 224,131.556135 224,131 Z M224,141 C224,140.447715 224.444631,140 225.000872,140 L238.999128,140 C239.551894,140 240,140.443865 240,141 C240,141.552285 239.555369,142 238.999128,142 L225.000872,142 C224.448106,142 224,141.556135 224,141 Z M224,136 C224,135.447715 224.444631,135 225.000872,135 L238.999128,135 C239.551894,135 240,135.443865 240,136 C240,136.552285 239.555369,137 238.999128,137 L225.000872,137 C224.448106,137 224,136.556135 224,136 Z" transform="translate(-224 -128)"/>
</svg>
