<svg xmlns="http://www.w3.org/2000/svg" width="16" height="16" viewBox="0 0 16 16">
  <path fill="#95999D" fill-rule="evenodd" d="M296,80 C300.418278,80 304,76.418278 304,72 C304,67.581722 300.418278,64 296,64 C291.581722,64 288,67.581722 288,72 C288,76.418278 291.581722,80 296,80 Z M297,72.802113 C298.121809,72.3545568 299,71.2089946 299,70 C299,68.4477153 297.552285,67 296,67 C294.447715,67 293,68.4477153 293,70 L295,70 C295,69.5522847 295.552285,69 296,69 C296.447715,69 297,69.5522847 297,70 C297,70.4477153 296.447715,71 296,71 C295.447715,71 295,71.4477153 295,72 L295,74 L297,74 L297,72.802113 Z M295,75 L297,75 L297,77 L295,77 L295,75 Z" transform="translate(-288 -64)"/>
</svg>
