<svg xmlns="http://www.w3.org/2000/svg" width="16" height="16" viewBox="0 0 16 16">
  <g fill="none" fill-rule="evenodd" transform="translate(-320 -32)">
    <path fill="#95999D" d="M330.472213,42 L331.5,42 L334.794088,45.2940879 C335.186127,45.6861267 335.183879,46.3161215 334.793923,46.706077 L334.706077,46.793923 C334.318111,47.1818886 333.683952,47.1839524 333.294088,46.7940879 L330,43.5 L330,42.472213 C328.938487,43.4222929 327.536709,44 326,44 C322.686292,44 320,41.3137085 320,38 C320,34.6862915 322.686292,32 326,32 C329.313708,32 332,34.6862915 332,38 C332,39.5367089 331.422293,40.938487 330.472213,42 Z M326,42 C328.209139,42 330,40.209139 330,38 C330,35.790861 328.209139,34 326,34 C323.790861,34 322,35.790861 322,38 C322,40.209139 323.790861,42 326,42 Z"/>
    <path fill="#95999D" d="M330.472213,42 L331.5,42 L334.794088,45.2940879 C335.186127,45.6861267 335.183879,46.3161215 334.793923,46.706077 L334.706077,46.793923 C334.318111,47.1818886 333.683952,47.1839524 333.294088,46.7940879 L330,43.5 L330,42.472213 C328.938487,43.4222929 327.536709,44 326,44 C322.686292,44 320,41.3137085 320,38 C320,34.6862915 322.686292,32 326,32 C329.313708,32 332,34.6862915 332,38 C332,39.5367089 331.422293,40.938487 330.472213,42 Z M326,42 C328.209139,42 330,40.209139 330,38 C330,35.790861 328.209139,34 326,34 C323.790861,34 322,35.790861 322,38 C322,40.209139 323.790861,42 326,42 Z"/>
  </g>
</svg>
